<?xml version="1.0" encoding="utf-8"?>
<!-- Svg Vector Icons : http://www.onlinewebfonts.com/icon -->
<!DOCTYPE svg PUBLIC "-//W3C//DTD SVG 1.1//EN" "http://www.w3.org/Graphics/SVG/1.1/DTD/svg11.dtd">
<svg version="1.1" xmlns="http://www.w3.org/2000/svg" xmlns:xlink="http://www.w3.org/1999/xlink" x="0px" y="0px" viewBox="0 0 1000 1000" enable-background="new 0 0 1000 1000" xml:space="preserve">
<metadata> Svg Vector Icons : http://www.onlinewebfonts.com/icon </metadata>
<g><g transform="translate(0.000000,511.000000) scale(0.100000,-0.100000)"><path d="M2835.2,4372.1c-373.2-70.8-691-241.2-966.6-514.9c-625.9-625.9-710.1-1510.2-237.3-2490.2c145.5-304.3,306.2-530.2,549.3-773.3C2301.2,475.1,2395,373.7,2393,369.8c-15.3-13.4-558.9-227.8-943.6-371.3C645.5-300.1,402.4-451.3,262.7-734.6C123-1021.7,100-1224.6,100-2206.5v-742.7h608.7h610.6l13.4,254.6c23,453.6,97.6,784.8,237.3,1054.7c86.1,162.7,308.2,402,482.3,518.7c174.2,114.8,537.9,287.1,872.8,411.5L3195-608.2l-95.7,155c-277.5,446-465.1,976.2-528.3,1485.3C2419.8,2238,3193.1,3386.4,4366.4,3700.3c97.6,26.8,181.8,51.7,187.6,55.5c3.8,3.8-55.5,65.1-130.2,137.8c-237.3,222-501.5,369.4-819.2,451.7C3411.3,4397,3034.3,4410.4,2835.2,4372.1z"/><path d="M6510.2,4372.1c-212.5-40.2-449.8-132.1-629.7-243.1c-166.5-101.4-451.7-356-426.8-379c7.6-7.7,67-23,130.2-36.4c172.3-36.4,484.3-162.7,658.4-268c405.8-245,748.4-614.4,957-1031.7c97.6-193.3,187.6-493.8,223.9-731.2c93.8-643.1-107.2-1470-522.5-2136.1l-95.7-155l289-109.1c589.5-223.9,899.6-400,1125.5-639.3c283.3-300.5,417.3-700.5,447.9-1339.9l13.4-252.7h610.6H9900v742.7c0,981.9-23,1184.8-162.7,1471.9C9599.5-453.2,9362.2-305.8,8569.7-9.1c-400,149.3-947.5,365.6-962.8,379c-1.9,3.8,93.8,103.4,212.5,223.9c402,403.9,669.9,903.4,802,1493c55.5,254.6,61.3,679.5,9.6,886.2c-170.4,681.4-677.6,1196.3-1351.3,1372.4C7086.3,4397,6709.3,4410.4,6510.2,4372.1z"/><path d="M4672.7,3145.2c-367.5-65.1-691-237.3-966.6-513c-635.5-635.5-713.9-1538.9-218.2-2528.5c63.2-126.3,170.4-306.2,237.3-400c120.6-166.5,354.1-419.2,457.5-493.8c28.7-19.1,51.7-44,51.7-51.7c0-17.2-507.2-223.9-1024-413.4c-719.7-268-974.3-428.7-1110.2-704.4c-139.7-287.1-162.7-490-162.7-1471.9v-742.7H5000h3062.5v742.7c0,981.9-23,1184.8-162.7,1471.9c-139.7,283.3-369.4,424.9-1205.9,738.8c-428.8,162.7-909.2,352.2-924.5,365.6c-1.9,3.8,93.8,103.3,212.5,223.9c402,402,669.9,903.4,802,1493c59.3,271.8,61.3,700.6,0,918.8C6588.7,2500.2,6024,3022.7,5312,3147.1C5112.9,3181.6,4867.9,3181.6,4672.7,3145.2z"/></g></g>
</svg>